<svg width="28" height="28" viewBox="0 0 28 28" fill="none" xmlns="http://www.w3.org/2000/svg">
<g clip-path="url(#clip0_2825_1000)">
<path d="M14 28C21.732 28 28 21.732 28 14C28 6.26801 21.732 0 14 0C6.26801 0 0 6.26801 0 14C0 21.732 6.26801 28 14 28Z" fill="#0052FF"/>
<path d="M14.1176 9.89379C15.7659 9.89379 17.0734 10.9104 17.57 12.4223H20.8906C20.2891 9.18996 17.6222 7 14.1441 7C10.1943 7 7.10938 9.99824 7.10938 14.0134C7.10938 18.0286 10.1172 21 14.1441 21C17.5443 21 20.2642 18.81 20.8663 15.5509H17.5697C17.0989 17.063 15.7924 18.1062 14.143 18.1062C11.8672 18.1062 10.2722 16.3592 10.2722 14.0134C10.2733 11.6408 11.8426 9.89379 14.1176 9.89379Z" fill="white"/>
</g>
<defs>
<clipPath id="clip0_2825_1000">
<rect width="28" height="28" fill="white"/>
</clipPath>
</defs>
</svg>
