<svg width="28" height="28" viewBox="0 0 28 28" fill="none" xmlns="http://www.w3.org/2000/svg">
<path fill-rule="evenodd" clip-rule="evenodd" d="M14 0C21.7328 0 28 6.26719 28 14C28 21.7328 21.7328 28 14 28C6.26719 28 0 21.7328 0 14C0 6.26719 6.26719 0 14 0Z" fill="url(#paint0_radial_2825_995)"/>
<path d="M8.89844 10.8116C11.7148 8.06084 16.2867 8.06084 19.1031 10.8116L19.4422 11.1452C19.5844 11.2819 19.5844 11.5062 19.4422 11.6429L18.2828 12.7749C18.2117 12.846 18.0969 12.846 18.0258 12.7749L17.5609 12.321C15.5922 10.4015 12.4094 10.4015 10.4406 12.321L9.94297 12.8077C9.87187 12.8788 9.75703 12.8788 9.68594 12.8077L8.52656 11.6757C8.38437 11.539 8.38437 11.3147 8.52656 11.178L8.89844 10.8116ZM21.5039 13.1522L22.5375 14.1585C22.6797 14.2952 22.6797 14.5194 22.5375 14.6562L17.8836 19.2007C17.7414 19.3374 17.5117 19.3374 17.375 19.2007L14.0719 15.9741C14.0391 15.9413 13.9789 15.9413 13.9461 15.9741L10.643 19.2007C10.5008 19.3374 10.2711 19.3374 10.1344 19.2007L5.46406 14.6562C5.32188 14.5194 5.32188 14.2952 5.46406 14.1585L6.49766 13.1522C6.63984 13.0155 6.86953 13.0155 7.00625 13.1522L10.3094 16.3788C10.3422 16.4116 10.4023 16.4116 10.4352 16.3788L13.7383 13.1522C13.8805 13.0155 14.1102 13.0155 14.2469 13.1522L17.55 16.3788C17.5828 16.4116 17.643 16.4116 17.6758 16.3788L20.9789 13.1522C21.132 13.0155 21.3617 13.0155 21.5039 13.1522Z" fill="white"/>
<defs>
<radialGradient id="paint0_radial_2825_995" cx="0" cy="0" r="1" gradientUnits="userSpaceOnUse" gradientTransform="translate(8.67844e-05 14.0004) scale(28)">
<stop stop-color="#5D9DF6"/>
<stop offset="1" stop-color="#006FFF"/>
</radialGradient>
</defs>
</svg>
