<svg width="24" height="15" viewBox="0 0 24 15" fill="none" xmlns="http://www.w3.org/2000/svg">
<path d="M5.09393 14.179C4.17347 14.179 3.35529 14.0213 2.63938 13.706C1.92773 13.3906 1.36523 12.9517 0.951882 12.3892C0.53853 11.8267 0.31907 11.1768 0.293501 10.4396H2.69691C2.71822 10.7933 2.8354 11.1023 3.04847 11.3665C3.26154 11.6264 3.54492 11.8288 3.89862 11.9737C4.25231 12.1186 4.64862 12.1911 5.08754 12.1911C5.55629 12.1911 5.97177 12.1101 6.33398 11.9482C6.6962 11.782 6.97958 11.5518 7.18413 11.2578C7.38867 10.9638 7.48881 10.625 7.48455 10.2415C7.48881 9.84517 7.38654 9.49574 7.17773 9.19318C6.96893 8.89062 6.66637 8.65412 6.27006 8.48366C5.87802 8.31321 5.40501 8.22798 4.85103 8.22798H3.69407V6.39986H4.85103C5.307 6.39986 5.70543 6.32102 6.04634 6.16335C6.39151 6.00568 6.66211 5.78409 6.85813 5.49858C7.05416 5.20881 7.15004 4.87429 7.14577 4.49503C7.15004 4.12429 7.06694 3.80256 6.89648 3.52983C6.73029 3.25284 6.49379 3.03764 6.18697 2.88423C5.88441 2.73082 5.52859 2.65412 5.1195 2.65412C4.71893 2.65412 4.34819 2.72656 4.00728 2.87145C3.66637 3.01633 3.39151 3.22301 3.18271 3.49148C2.9739 3.75568 2.8631 4.07102 2.85032 4.4375H0.568359C0.585405 3.70455 0.796342 3.06108 1.20117 2.5071C1.61026 1.94886 2.15572 1.5142 2.83754 1.20312C3.51935 0.887784 4.28427 0.730113 5.13228 0.730113C6.00586 0.730113 6.76438 0.894176 7.40785 1.2223C8.05558 1.54616 8.55629 1.98295 8.90998 2.53267C9.26367 3.08239 9.44052 3.68963 9.44052 4.3544C9.44478 5.09162 9.22745 5.70952 8.78853 6.2081C8.35387 6.70668 7.78285 7.03267 7.07546 7.18608V7.28835C7.99592 7.41619 8.70117 7.7571 9.19123 8.31108C9.68555 8.8608 9.93058 9.54474 9.92631 10.3629C9.92631 11.0959 9.71751 11.7521 9.29989 12.3317C8.88654 12.907 8.31552 13.3587 7.58683 13.6868C6.86239 14.0149 6.03143 14.179 5.09393 14.179ZM16.6843 14H12.2482V0.909091H16.7738C18.0735 0.909091 19.19 1.17116 20.1232 1.69531C21.0607 2.2152 21.7809 2.96307 22.2837 3.93892C22.7866 4.91477 23.038 6.08239 23.038 7.44176C23.038 8.8054 22.7844 9.97727 22.2773 10.9574C21.7745 11.9375 21.0479 12.6896 20.0977 13.2138C19.1516 13.7379 18.0138 14 16.6843 14ZM14.6197 11.9482H16.5692C17.4812 11.9482 18.2418 11.782 18.8512 11.4496C19.4606 11.1129 19.9187 10.6122 20.2255 9.94744C20.5323 9.27841 20.6857 8.44318 20.6857 7.44176C20.6857 6.44034 20.5323 5.60937 20.2255 4.94886C19.9187 4.28409 19.4648 3.78764 18.864 3.45952C18.2674 3.12713 17.5259 2.96094 16.6396 2.96094H14.6197V11.9482Z" fill="#FCFCFC"/>
</svg>
