<svg width="32" height="32" viewBox="0 0 32 32" fill="none" xmlns="http://www.w3.org/2000/svg">
<path d="M16.0268 3.88037C11.6135 3.88037 8.02678 7.46704 8.02678 11.8804V15.7337C8.02678 16.547 7.68012 17.787 7.26678 18.4804L5.73345 21.027C4.78678 22.6004 5.44012 24.347 7.17345 24.9337C12.9201 26.8537 19.1201 26.8537 24.8668 24.9337C26.4801 24.4004 27.1868 22.4937 26.3068 21.027L24.7734 18.4804C24.3734 17.787 24.0268 16.547 24.0268 15.7337V11.8804C24.0268 7.48037 20.4268 3.88037 16.0268 3.88037Z" stroke="#FCFCFC" stroke-width="2" stroke-miterlimit="10" stroke-linecap="round"/>
<path d="M18.4939 4.26643C18.0805 4.14643 17.6539 4.05309 17.2139 3.99976C15.9339 3.83976 14.7072 3.93309 13.5605 4.26643C13.9472 3.27976 14.9072 2.58643 16.0272 2.58643C17.1472 2.58643 18.1072 3.27976 18.4939 4.26643Z" stroke="#FCFCFC" stroke-width="2" stroke-miterlimit="10" stroke-linecap="round" stroke-linejoin="round"/>
<path d="M20.0254 25.4136C20.0254 27.6136 18.2254 29.4136 16.0254 29.4136C14.9321 29.4136 13.9187 28.9602 13.1987 28.2402C12.4787 27.5202 12.0254 26.5069 12.0254 25.4136" stroke="#FCFCFC" stroke-width="2" stroke-miterlimit="10"/>
</svg>
