<svg width="26" height="26" viewBox="0 0 26 26" fill="none" xmlns="http://www.w3.org/2000/svg">
<path d="M23.8327 12.9998C23.8327 7.01984 18.9793 2.1665 12.9993 2.1665C7.01935 2.1665 2.16602 7.01984 2.16602 12.9998C2.16602 18.9798 7.01935 23.8332 12.9993 23.8332" stroke="#FCFCFC" stroke-width="1.5" stroke-linecap="round" stroke-linejoin="round"/>
<path d="M8.6651 3.25H9.74844C7.63594 9.57667 7.63594 16.4233 9.74844 22.75H8.6651" stroke="#FCFCFC" stroke-width="1.5" stroke-linecap="round" stroke-linejoin="round"/>
<path d="M16.25 3.25C17.3008 6.41333 17.8317 9.70667 17.8317 13" stroke="#FCFCFC" stroke-width="1.5" stroke-linecap="round" stroke-linejoin="round"/>
<path d="M3.25 17.3333V16.25C6.41333 17.3008 9.70667 17.8317 13 17.8317" stroke="#FCFCFC" stroke-width="1.5" stroke-linecap="round" stroke-linejoin="round"/>
<path d="M3.25 9.75039C9.57667 7.63789 16.4233 7.63789 22.75 9.75039" stroke="#FCFCFC" stroke-width="1.5" stroke-linecap="round" stroke-linejoin="round"/>
<path d="M21.1246 15.925C20.7237 15.8058 20.2687 15.73 19.7704 15.73C17.5279 15.73 15.7188 17.55 15.7188 19.7816C15.7188 22.0241 17.5387 23.8333 19.7704 23.8333C22.0021 23.8333 23.8221 22.0133 23.8221 19.7816C23.8221 18.9475 23.5729 18.1675 23.1396 17.5283" stroke="#FCFCFC" stroke-width="1.5" stroke-linecap="round" stroke-linejoin="round"/>
<path d="M21.7077 16.0335L20.3535 14.4844" stroke="#FCFCFC" stroke-width="1.5" stroke-linecap="round" stroke-linejoin="round"/>
<path d="M21.7086 16.0337L20.127 17.182" stroke="#FCFCFC" stroke-width="1.5" stroke-linecap="round" stroke-linejoin="round"/>
</svg>
