<svg width="32" height="32" viewBox="0 0 32 32" fill="none" xmlns="http://www.w3.org/2000/svg">
<path d="M17.334 12H9.33398" stroke="#FCFCFC" stroke-width="2" stroke-linecap="round" stroke-linejoin="round"/>
<path d="M29.333 14.6265V17.3733C29.333 18.1066 28.7463 18.7066 27.9996 18.7332H25.3863C23.9463 18.7332 22.6263 17.6799 22.5063 16.2399C22.4263 15.3999 22.7463 14.6132 23.3063 14.0666C23.7996 13.5599 24.4796 13.2666 25.2263 13.2666H27.9996C28.7463 13.2933 29.333 13.8932 29.333 14.6265Z" stroke="#FCFCFC" stroke-width="2" stroke-linecap="round" stroke-linejoin="round"/>
<path d="M23.306 14.0665C22.746 14.6132 22.426 15.3998 22.506 16.2398C22.626 17.6798 23.946 18.7332 25.386 18.7332H27.9993V20.6665C27.9993 24.6665 25.3327 27.3332 21.3327 27.3332H9.33268C5.33268 27.3332 2.66602 24.6665 2.66602 20.6665V11.3332C2.66602 7.7065 4.85269 5.17317 8.25269 4.7465C8.59935 4.69317 8.95935 4.6665 9.33268 4.6665H21.3327C21.6793 4.6665 22.0127 4.67982 22.3327 4.73315C25.7727 5.13315 27.9993 7.67984 27.9993 11.3332V13.2665H25.226C24.4793 13.2665 23.7993 13.5598 23.306 14.0665Z" stroke="#FCFCFC" stroke-width="2" stroke-linecap="round" stroke-linejoin="round"/>
</svg>
